<?xml version="1.0" encoding="UTF-8"?>
<svg width="21px" height="26px" viewBox="0 0 21 26" version="1.1" xmlns="http://www.w3.org/2000/svg" xmlns:xlink="http://www.w3.org/1999/xlink">
    <!-- Generator: Sketch 58 (84663) - https://sketch.com -->
    <title>Group 10</title>
    <desc>Created with Sketch.</desc>
    <defs>
        <polygon id="path-1" points="0 0.0590318182 20.230175 0.0590318182 20.230175 25.2909091 0 25.2909091"></polygon>
    </defs>
    <g id="Page-1" stroke="none" stroke-width="1" fill="none" fill-rule="evenodd">
        <g id="pop-up" transform="translate(-671.000000, -502.000000)">
            <g id="delete" transform="translate(671.000000, 502.000000)">
                <g id="Group-10">
                    <path d="M13.5,9 C13.22385,9 13,9.25705263 13,9.57416268 L13,20.4258373 C13,20.7427751 13.22385,21 13.5,21 C13.77615,21 14,20.7427751 14,20.4258373 L14,9.57416268 C14,9.25705263 13.77615,9 13.5,9" id="Fill-1" fill="#393C50"></path>
                    <path d="M6.5,9 C6.22385,9 6,9.25705263 6,9.57416268 L6,20.4258373 C6,20.7427751 6.22385,21 6.5,21 C6.77615,21 7,20.7427751 7,20.4258373 L7,9.57416268 C7,9.25705263 6.77615,9 6.5,9" id="Fill-3" fill="#393C50"></path>
                    <g id="Group-7">
                        <mask id="mask-2" fill="white">
                            <use xlink:href="#path-1"></use>
                        </mask>
                        <g id="Clip-6"></g>
                        <path d="M2.22847333,4.31363636 L18.00169,4.31363636 C18.58164,4.31363636 19.05169,4.78985 19.05169,5.37727273 C19.05169,5.96469545 18.58164,6.44090909 18.00169,6.44090909 L2.22847333,6.44090909 C1.64858167,6.44090909 1.17847333,5.96469545 1.17847333,5.37727273 C1.17847333,4.78985 1.64858167,4.31363636 2.22847333,4.31363636 L2.22847333,4.31363636 Z M6.38174833,2.39318182 C6.37789833,2.08549545 6.49730667,1.78933182 6.71284833,1.57211364 C6.92815667,1.35495455 7.22122333,1.23559091 7.52519833,1.24090909 L12.7050233,1.24090909 C13.0089983,1.23559091 13.3020067,1.35495455 13.517315,1.57211364 C13.732915,1.78909545 13.8523233,2.08549545 13.848415,2.39318182 L13.848415,3.13181818 L6.38174833,3.13181818 L6.38174833,2.39318182 Z M15.6335317,24.1090909 L4.59669,24.1090909 C3.59930667,24.1090909 2.823415,23.2411636 2.823415,22.1295455 L2.823415,7.62272727 L17.4067483,7.62272727 L17.4067483,22.1295455 C17.4067483,23.2411636 16.6308567,24.1090909 15.6335317,24.1090909 L15.6335317,24.1090909 Z M1.65674833,7.57078636 L1.65674833,22.1295455 C1.65674833,22.9900273 1.96824833,23.7981545 2.51238167,24.3780136 C3.05400667,24.9594682 3.80779,25.28955 4.59669,25.2909091 L15.6335317,25.2909091 C16.4226067,25.28955 17.17639,24.9594682 17.7177817,24.3780136 C18.261915,23.7981545 18.573415,22.9900273 18.573415,22.1295455 L18.573415,7.57078636 C19.65509,7.27994091 20.3560233,6.22138636 20.2112983,5.09706364 C20.0663983,3.97291818 19.12099,3.13205455 18.00169,3.13181818 L15.0150817,3.13181818 L15.0150817,2.39318182 C15.0185233,1.77201818 14.77609,1.17561364 14.3419733,0.736804545 C13.907915,0.298231818 13.318165,0.0540090909 12.7050233,0.0590131601 L7.52519833,0.0590131601 C6.91199833,0.0540090909 6.32230667,0.298231818 5.88819,0.736804545 C5.45413167,1.17561364 5.21169833,1.77201818 5.21508167,2.39318182 L5.21508167,3.13181818 L2.22847333,3.13181818 C1.10923167,3.13205455 0.163765,3.97291818 0.018865,5.09706364 C-0.125801667,6.22138636 0.575073333,7.27994091 1.65674833,7.57078636 L1.65674833,7.57078636 Z" id="Fill-5" fill="#393C50" mask="url(#mask-2)"></path>
                    </g>
                    <path d="M10.5,9 C10.22385,9 10,9.25705263 10,9.57416268 L10,20.4258373 C10,20.7427751 10.22385,21 10.5,21 C10.77615,21 11,20.7427751 11,20.4258373 L11,9.57416268 C11,9.25705263 10.77615,9 10.5,9" id="Fill-8" fill="#393C50"></path>
                </g>
            </g>
        </g>
    </g>
</svg>