<?xml version="1.0" encoding="UTF-8"?>
<svg width="17px" height="17px" viewBox="0 0 17 17" version="1.1" xmlns="http://www.w3.org/2000/svg" xmlns:xlink="http://www.w3.org/1999/xlink">
    <!-- Generator: Sketch 58 (84663) - https://sketch.com -->
    <title>close</title>
    <desc>Created with Sketch.</desc>
    <g id="Page-1" stroke="none" stroke-width="1" fill="none" fill-rule="evenodd">
        <g id="sidebar" transform="translate(-1401.000000, -29.000000)" fill="#292C42" stroke="#393C50">
            <g id="close" transform="translate(1402.000000, 30.000000)">
                <g id="Fill-1">
                    <path d="M8.59170438,7.51048495 L14.7564846,1.37252334 C15.0520647,1.07961503 15.0520647,0.605459148 14.7564846,0.313328495 C14.4616813,0.0204201847 13.9828335,0.0204201847 13.6880302,0.313328495 L7.52852676,6.44603422 L1.31205017,0.221913643 C1.01722007,-0.0739712142 0.538372287,-0.0739712142 0.243568979,0.221913643 C-0.0512343293,0.51854934 -0.0512343293,0.998685135 0.243568979,1.29456999 L6.455492,7.51421234 L0.22112257,13.7211172 C-0.0737075235,14.0139987 -0.0737075235,14.4881546 0.22112257,14.7803121 C0.515925879,15.0732204 0.994773665,15.0732204 1.28957697,14.7803121 L7.51869641,8.57866307 L13.710423,14.7780864 C14.0052263,15.0739712 14.4840741,15.0739712 14.7788774,14.7780864 C15.0737075,14.4814507 15.0737075,14.0013149 14.7788774,13.7054032 L8.59170438,7.51048495 Z"></path>
                </g>
            </g>
        </g>
    </g>
</svg>