<?xml version="1.0" encoding="UTF-8"?>
<svg width="133px" height="30px" viewBox="0 0 133 30" version="1.1" xmlns="http://www.w3.org/2000/svg" xmlns:xlink="http://www.w3.org/1999/xlink">
    <!-- Generator: Sketch 58 (84663) - https://sketch.com -->
    <title>download button</title>
    <desc>Created with Sketch.</desc>
    <defs>
        <polygon id="path-1" points="0.0197775 0.00882820513 8.92221188 0.00882820513 8.92221188 10.7885527 0.0197775 10.7885527"></polygon>
    </defs>
    <g id="Page-1" stroke="none" stroke-width="1" fill="none" fill-rule="evenodd">
        <g id="pop-up" transform="translate(-835.000000, -500.000000)">
            <g id="download-button" transform="translate(835.000000, 500.000000)">
                <g>
                    <rect id="Rectangle" fill="#F95159" x="0" y="0" width="133" height="30" rx="15"></rect>
                    <text id="DOWNLOAD" font-family="Lato-Bold, Lato" font-size="10" font-weight="bold" letter-spacing="0.226102857" fill="#FFFFFF">
                        <tspan x="43" y="19">DOWNLOAD</tspan>
                    </text>
                    <g id="Group-6" transform="translate(20.000000, 7.000000)">
                        <path d="M14.3755236,10 C14.0296154,10 13.7510472,10.2499975 13.7510472,10.5604284 L13.7510472,13.8763802 L1.24898076,13.8763802 L1.24898076,10.5604284 C1.24898076,10.2499975 0.970412567,10 0.624504373,10 C0.27856819,10 0,10.2499975 0,10.5604284 L0,14.4395716 C0,14.7500025 0.27856819,15 0.624504373,15 L14.3755236,15 C14.7214318,15 15,14.7500025 15,14.4395716 L15,10.5604284 C15,10.2499975 14.7214318,10 14.3755236,10" id="Fill-1" fill="#FFFFFF"></path>
                        <g id="Group-5" transform="translate(3.000000, 0.000000)">
                            <mask id="mask-2" fill="white">
                                <use xlink:href="#path-1"></use>
                            </mask>
                            <g id="Clip-4"></g>
                            <path d="M4.02802594,10.5993997 C4.36949156,10.9294844 4.77859781,10.7598305 4.91702906,10.5993997 L8.73764156,6.77100487 C8.98373531,6.52421 8.98373531,6.12623564 8.73764156,5.87944077 C8.49154781,5.6326459 8.09473219,5.6326459 7.84863844,5.87944077 L5.09854781,8.63429205 L5.09854781,0.638138205 C5.09854781,0.289551026 4.81859156,0.00882538462 4.47099469,0.00882538462 C4.12339781,0.00882538462 3.84346969,0.289551026 3.84346969,0.638138205 L3.84346969,8.63121769 L1.09335094,5.87636641 C0.847257188,5.62957154 0.450441563,5.62957154 0.204347813,5.87636641 C-0.0417459375,6.12316128 -0.0417459375,6.52110744 0.204347813,6.76790231 L4.02802594,10.5993997 Z" id="Fill-3" fill="#FFFFFF" mask="url(#mask-2)"></path>
                        </g>
                    </g>
                </g>
            </g>
        </g>
    </g>
</svg>