<?xml version="1.0" encoding="UTF-8"?>
<svg width="90px" height="90px" viewBox="0 0 90 90" version="1.1" xmlns="http://www.w3.org/2000/svg" xmlns:xlink="http://www.w3.org/1999/xlink">
    <!-- Generator: Sketch 63.1 (92452) - https://sketch.com -->
    <title>Group</title>
    <desc>Created with Sketch.</desc>
    <g id="Page-1" stroke="none" stroke-width="1" fill="none" fill-rule="evenodd">
        <g id="place-holders" transform="translate(-520.000000, -41.000000)">
            <g id="Group" transform="translate(520.000000, 41.000000)">
                <g id="general-_text" fill="#FF7F85">
                    <g transform="translate(0.000000, 0.000000)" id="Group-19">
                        <g>
                            <rect id="Rectangle" x="0" y="0" width="90" height="90" rx="5"></rect>
                        </g>
                    </g>
                </g>
                <g id="files-and-folders" transform="translate(28.000000, 24.000000)" fill="#FFFFFF" fill-rule="nonzero">
                    <path d="M34.6095698,8.2556583 L26.5326574,0.380666069 C26.2786553,0.134982718 25.9347135,-0.00192730328 25.5768894,2.05022856e-05 L4.03845622,2.05022856e-05 C1.80805051,2.05022856e-05 0,1.76289127 0,3.93753756 L0,38.0625039 C0,40.2371502 1.80805051,42 4.03845622,42 L30.9614977,42 C33.1919034,42 34.9999772,40.2371502 34.9999772,38.0625039 L34.9999772,9.18753238 C35.0020573,8.83865382 34.8615527,8.50339243 34.6095698,8.2556583 Z M32.3076498,38.0625039 C32.3076498,38.7874133 31.7049943,39.3750026 30.9614977,39.3750026 L4.03845622,39.3750026 C3.29495961,39.3750026 2.69230415,38.7874133 2.69230415,38.0625039 L2.69230415,3.93753756 C2.69230415,3.21262812 3.29495961,2.62503885 4.03845622,2.62503885 L24.2307373,2.62503885 L24.2307373,7.87503367 C24.2307373,9.32477052 25.4361324,10.5000311 26.9230415,10.5000311 L32.3076498,10.5000311 L32.3076498,38.0625039 Z" id="Shape"></path>
                </g>
            </g>
        </g>
    </g>
</svg>