<?xml version="1.0" encoding="UTF-8"?>
<svg width="405px" height="202px" viewBox="0 0 405 202" version="1.1" xmlns="http://www.w3.org/2000/svg" xmlns:xlink="http://www.w3.org/1999/xlink">
    <!-- Generator: Sketch 58 (84663) - https://sketch.com -->
    <title>Group 2</title>
    <desc>Created with Sketch.</desc>
    <defs>
        <polygon id="path-1" points="0 0.819655834 46.1820192 0.819655834 46.1820192 47.0943064 0 47.0943064"></polygon>
        <polygon id="path-3" points="0 0.0126629434 8.30273077 0.0126629434 8.30273077 8.42264151 0 8.42264151"></polygon>
        <polygon id="path-5" points="0.000272822824 0.519326165 30.480902 0.519326165 30.480902 31 0.000272822824 31"></polygon>
        <polygon id="path-7" points="0 0.639333333 40.3640229 0.639333333 40.3640229 41.2222092 0 41.2222092"></polygon>
        <polygon id="path-9" points="6.35076546e-05 0.183181818 30.8168182 0.183181818 30.8168182 31 6.35076546e-05 31"></polygon>
    </defs>
    <g id="Page-1" stroke="none" stroke-width="1" fill="none" fill-rule="evenodd">
        <g id="sidebar" transform="translate(-1035.000000, 0.000000)">
            <g id="sidebar-background" transform="translate(1035.000000, -79.000000)">
                <g id="Group-2" transform="translate(-47.000000, 15.000000)">
                    <rect id="Rectangle" fill="#FFFFFF" x="47" y="64" width="405" height="202"></rect>
                    <rect id="Rectangle" fill="#F95159" x="0" y="0" width="258" height="254" rx="127"></rect>
                    <g id="header-illustration" transform="translate(191.000000, 76.000000)">
                        <g id="Group-13" opacity="0.292596726" transform="translate(4.000000, 0.000000)" fill="#DADBDF">
                            <g id="Group-11" opacity="0.536900112" transform="translate(0.000000, 56.000000)">
                                <ellipse id="Oval" cx="4.01333333" cy="4" rx="4.01333333" ry="4"></ellipse>
                                <ellipse id="Oval" cx="23.5066667" cy="4" rx="4.01333333" ry="4"></ellipse>
                                <ellipse id="Oval" cx="43" cy="4" rx="4.01333333" ry="4"></ellipse>
                                <ellipse id="Oval" cx="62.4933333" cy="4" rx="4.01333333" ry="4"></ellipse>
                                <ellipse id="Oval" cx="81.9866667" cy="4" rx="4.01333333" ry="4"></ellipse>
                            </g>
                            <g id="Group-10" opacity="0.536900112" transform="translate(0.000000, 38.000000)">
                                <ellipse id="Oval" cx="4.01333333" cy="4" rx="4.01333333" ry="4"></ellipse>
                                <ellipse id="Oval" cx="23.5066667" cy="4" rx="4.01333333" ry="4"></ellipse>
                                <ellipse id="Oval" cx="43" cy="4" rx="4.01333333" ry="4"></ellipse>
                                <ellipse id="Oval" cx="62.4933333" cy="4" rx="4.01333333" ry="4"></ellipse>
                                <ellipse id="Oval" cx="81.9866667" cy="4" rx="4.01333333" ry="4"></ellipse>
                            </g>
                            <g id="Group-9" opacity="0.536900112" transform="translate(0.000000, 18.000000)">
                                <ellipse id="Oval" cx="4.01333333" cy="4" rx="4.01333333" ry="4"></ellipse>
                                <ellipse id="Oval" cx="23.5066667" cy="4" rx="4.01333333" ry="4"></ellipse>
                                <ellipse id="Oval" cx="43" cy="4" rx="4.01333333" ry="4"></ellipse>
                                <ellipse id="Oval" cx="62.4933333" cy="4" rx="4.01333333" ry="4"></ellipse>
                                <ellipse id="Oval" cx="81.9866667" cy="4" rx="4.01333333" ry="4"></ellipse>
                            </g>
                            <g id="Group-7" opacity="0.536900112">
                                <ellipse id="Oval" cx="4.01333333" cy="4" rx="4.01333333" ry="4"></ellipse>
                                <ellipse id="Oval" cx="23.5066667" cy="4" rx="4.01333333" ry="4"></ellipse>
                                <ellipse id="Oval" cx="43" cy="4" rx="4.01333333" ry="4"></ellipse>
                                <ellipse id="Oval" cx="62.4933333" cy="4" rx="4.01333333" ry="4"></ellipse>
                                <ellipse id="Oval" cx="81.9866667" cy="4" rx="4.01333333" ry="4"></ellipse>
                            </g>
                        </g>
                        <g id="Group-13" opacity="0.292596726" transform="translate(100.000000, 1.000000)" fill="#DADBDF">
                            <g id="Group-11" opacity="0.536900112" transform="translate(0.000000, 56.000000)">
                                <ellipse id="Oval" cx="4.01333333" cy="4" rx="4.01333333" ry="4"></ellipse>
                                <ellipse id="Oval" cx="23.5066667" cy="4" rx="4.01333333" ry="4"></ellipse>
                                <ellipse id="Oval" cx="43" cy="4" rx="4.01333333" ry="4"></ellipse>
                                <ellipse id="Oval" cx="62.4933333" cy="4" rx="4.01333333" ry="4"></ellipse>
                                <ellipse id="Oval" cx="81.9866667" cy="4" rx="4.01333333" ry="4"></ellipse>
                            </g>
                            <g id="Group-10" opacity="0.536900112" transform="translate(0.000000, 38.000000)">
                                <ellipse id="Oval" cx="4.01333333" cy="4" rx="4.01333333" ry="4"></ellipse>
                                <ellipse id="Oval" cx="23.5066667" cy="4" rx="4.01333333" ry="4"></ellipse>
                                <ellipse id="Oval" cx="43" cy="4" rx="4.01333333" ry="4"></ellipse>
                                <ellipse id="Oval" cx="62.4933333" cy="4" rx="4.01333333" ry="4"></ellipse>
                                <ellipse id="Oval" cx="81.9866667" cy="4" rx="4.01333333" ry="4"></ellipse>
                            </g>
                            <g id="Group-9" opacity="0.536900112" transform="translate(0.000000, 18.000000)">
                                <ellipse id="Oval" cx="4.01333333" cy="4" rx="4.01333333" ry="4"></ellipse>
                                <ellipse id="Oval" cx="23.5066667" cy="4" rx="4.01333333" ry="4"></ellipse>
                                <ellipse id="Oval" cx="43" cy="4" rx="4.01333333" ry="4"></ellipse>
                                <ellipse id="Oval" cx="62.4933333" cy="4" rx="4.01333333" ry="4"></ellipse>
                                <ellipse id="Oval" cx="81.9866667" cy="4" rx="4.01333333" ry="4"></ellipse>
                            </g>
                            <g id="Group-7" opacity="0.536900112">
                                <ellipse id="Oval" cx="4.01333333" cy="4" rx="4.01333333" ry="4"></ellipse>
                                <ellipse id="Oval" cx="23.5066667" cy="4" rx="4.01333333" ry="4"></ellipse>
                                <ellipse id="Oval" cx="43" cy="4" rx="4.01333333" ry="4"></ellipse>
                                <ellipse id="Oval" cx="62.4933333" cy="4" rx="4.01333333" ry="4"></ellipse>
                                <ellipse id="Oval" cx="81.9866667" cy="4" rx="4.01333333" ry="4"></ellipse>
                            </g>
                        </g>
                        <g id="text" transform="translate(0.000000, 64.000000)">
                            <g id="Group-8">
                                <g id="Group-3" transform="translate(0.000000, 0.085857)">
                                    <mask id="mask-2" fill="white">
                                        <use xlink:href="#path-1"></use>
                                    </mask>
                                    <g id="Clip-2"></g>
                                    <path d="M44.1839769,31.9218113 L20.9994192,46.4458868 C19.00915,47.6929811 16.3861885,47.0870943 15.1424962,45.0928302 L0.646611538,21.8617358 C-0.597984615,19.866566 0.00759230769,17.2392453 1.99786154,15.9921509 L25.1824192,1.46807547 C27.1726885,0.220981132 29.79565,0.826867925 31.0393423,2.82113208 L45.5352269,26.0522264 C46.7798231,28.0464906 46.1742462,30.674717 44.1839769,31.9218113" id="Fill-1" fill="#91E1FF" mask="url(#mask-2)"></path>
                                </g>
                            </g>
                            <g id="Group-6" transform="translate(23.387395, 24.345204) rotate(-32.000000) translate(-23.387395, -24.345204) translate(14.387395, 16.345204)">
                                <g id="Group-3" transform="translate(0.000000, 6.500848)">
                                    <mask id="mask-4" fill="white">
                                        <use xlink:href="#path-3"></use>
                                    </mask>
                                    <g id="Clip-2"></g>
                                    <path d="M0.451923077,3.25856785 L0.912884615,3.25856785 C1.10992308,3.25856785 1.28346154,3.1317754 1.34311538,2.94158672 C1.49857692,2.45794596 1.71911538,2.08662521 1.99930769,1.83849238 C2.2795,1.59032332 2.62296154,1.4563037 3.04234615,1.43275653 L3.04053846,6.77434143 C3.04053846,6.9283037 2.97003846,6.96634143 2.61753846,7.00256785 L2.61392308,7.00256785 C2.45303846,7.01886974 2.28311538,7.03518974 2.09692308,7.04966219 C1.86373077,7.0677754 1.68115385,7.26702068 1.68115385,7.50068106 L1.68115385,7.96981313 C1.68115385,8.21975728 1.88361538,8.42264332 2.13307692,8.42264332 L4.15046154,8.42264332 L4.15226923,8.42264332 L6.16965385,8.42264332 C6.41913346,8.42264332 6.62157692,8.21975728 6.62157692,7.96981313 L6.62157692,7.50068106 C6.62157692,7.26702068 6.439,7.0677754 6.20580769,7.04966219 C6.01961538,7.03518974 5.84971038,7.01888785 5.68880769,7.00256785 L5.68519231,7.00256785 C5.33269231,6.96634143 5.26219231,6.92651049 5.26219231,6.77434143 L5.26038462,1.43275653 C5.67976923,1.45632181 6.02323077,1.59032332 6.30342308,1.83849238 C6.58361538,2.08662521 6.80415385,2.45615275 6.95961538,2.94158672 C7.01926923,3.12992785 7.19280769,3.25856785 7.38984615,3.25856785 L7.85080769,3.25856785 C8.10028731,3.25856785 8.30273077,3.05568181 8.30273077,2.80573766 L8.30273077,0.465493132 C8.30273077,0.215530868 8.10028731,0.0126629434 7.85080769,0.0126629434 L4.15226923,0.0126629434 L4.15046154,0.0126629434 L0.451923077,0.0126629434 C0.202461538,0.0126629434 0,0.215530868 0,0.465493132 L0,2.80389011 C0,3.05387049 0.202461538,3.25856785 0.451923077,3.25856785" id="Fill-1" fill="#FFFFFF" mask="url(#mask-4)"></path>
                                </g>
                                <path d="M17.4297692,1.81132075e-06 L11.4806538,1.81132075e-06 L11.4770385,1.81132075e-06 L5.52973077,1.81132075e-06 C5.22965385,1.81132075e-06 4.98742308,0.242718792 4.98742308,0.543398038 L4.98742308,4.16966219 C4.98742308,4.47034143 5.22965385,4.71305842 5.52973077,4.71305842 L6.11361538,4.71305842 C6.34861538,4.71305842 6.55469231,4.56271879 6.62880769,4.33992634 C7.14761538,2.7658886 8.14003846,1.69902068 9.96219231,1.72619049 L9.96038462,12.5198328 C9.96038462,13.0903988 9.45605654,13.1411339 8.99869231,13.1882101 C8.74380769,13.2153799 8.49073077,13.2371339 8.23586423,13.2588516 C7.95384615,13.282435 7.73692308,13.5179067 7.73692308,13.8004546 L7.73692308,14.3764365 C7.73692308,14.677152 7.97915385,14.9198328 8.27923077,14.9198328 L11.4788462,14.9198328 L11.4824615,14.9198328 L14.6820769,14.9198328 C14.9821538,14.9198328 15.2243846,14.677152 15.2243846,14.3764365 L15.2243846,13.8004546 C15.2243846,13.5178886 15.0074615,13.2824169 14.7254615,13.2588697 C14.4705588,13.2389452 14.2174819,13.215398 13.9626154,13.1882282 C13.5052692,13.1411339 13.0009231,13.0904169 13.0009231,12.5198509 L12.9991154,1.7262086 C14.8212692,1.69903879 15.8136742,2.76590672 16.3324819,4.33994445 C16.4066154,4.56273691 16.6126742,4.71307653 16.8476742,4.71307653 L17.4297512,4.71307653 C17.7298281,4.71307653 17.9720588,4.47035955 17.9720588,4.1696803 L17.9720588,0.543416151 C17.9720588,0.242718792 17.7298462,1.81132075e-06 17.4297692,1.81132075e-06" id="Fill-4" fill="#FFFFFF"></path>
                            </g>
                        </g>
                        <g id="music" transform="translate(105.000000, 2.000000)">
                            <g id="Group-3">
                                <mask id="mask-6" fill="white">
                                    <use xlink:href="#path-5"></use>
                                </mask>
                                <g id="Clip-2"></g>
                                <path d="M17.9035941,30.6828275 L1.55139804,22.272102 C0.147888235,21.5499843 -0.404641176,19.826749 0.317476471,18.4226314 L8.72759412,2.07104314 C9.44971176,0.66692549 11.1735549,0.114396078 12.5770647,0.836513725 L28.9292608,9.24663137 C30.3333784,9.96935686 30.8859078,11.6925922 30.1637902,13.0967098 L21.7530647,29.448298 C21.0309471,30.8524157 19.3077118,31.4049451 17.9035941,30.6828275" id="Fill-1" fill="#76FFD0" mask="url(#mask-6)"></path>
                            </g>
                            <path d="M23.864193,13.1114775 C24.146746,12.549771 23.9741404,11.8835751 23.4787859,11.6232574 L14.8804252,7.10423848 C14.3850707,6.84392076 13.7537598,7.08793087 13.4712067,7.64963732 L9.94875168,14.6474124 C9.80156402,14.5326552 9.64373628,14.4269577 9.47053954,14.3363599 C8.18900194,13.6623122 6.72067196,13.9697408 6.1910328,15.0218834 C5.66139365,16.074026 6.27083335,17.4734602 7.55237095,18.1469039 C8.83390855,18.8203477 10.3028296,18.5135231 10.8324688,17.4613805 C10.8661624,17.3937341 10.8827136,17.3212559 10.9075404,17.2511936 L13.837107,11.43119 L20.6408422,15.0067837 L18.5412012,19.1773031 C18.3833735,19.0498621 18.2149057,18.931481 18.0263399,18.8324274 C16.7442112,18.1589836 15.2758812,18.4658082 14.7462421,19.5179508 C14.2166029,20.5706974 14.8260426,21.9695277 16.1075802,22.6429714 C17.2330634,23.2348771 18.5015965,23.0687811 19.1530054,22.3077595 C19.2523127,22.2129338 19.3397978,22.0993845 19.4060026,21.9671117 L23.864193,13.1114775 Z" id="Fill-4" fill="#FFFFFF"></path>
                        </g>
                        <g id="img" transform="translate(37.000000, 3.000000)">
                            <g id="Group-3">
                                <mask id="mask-8" fill="white">
                                    <use xlink:href="#path-7"></use>
                                </mask>
                                <g id="Clip-2"></g>
                                <path d="M17.2020528,40.0951444 L1.01092075,23.1061444 C-0.379211321,21.6478111 -0.329701887,19.3323667 1.12076981,17.9347 L18.0181849,1.65581111 C19.4686566,0.258144444 21.7716189,0.307922222 23.1617509,1.76703333 L39.352883,18.7552556 C40.7430151,20.2135889 40.6935057,22.5290333 39.243034,23.9267 L22.3456189,40.2055889 C20.8951472,41.6032556 18.5921849,41.5534778 17.2020528,40.0951444" id="Fill-1" fill="#ECD0FD" mask="url(#mask-8)"></path>
                            </g>
                            <polygon id="Fill-4" fill="#FFFFFF" points="19.6371822 38 3 20.6371822 20.3628178 4 37 21.3628178"></polygon>
                            <path d="M3,20.839989 C3.09738522,20.7469929 14,20 14,20 L12.6902066,31 L3,20.839989 Z" id="Fill-6" fill="#EFD6FE"></path>
                            <path d="M8,25.6117255 C8.14385419,25.4731101 23,23 23,23 L19.7568789,38 L8,25.6117255 Z" id="Fill-8" fill="#EFD6FE"></path>
                            <path d="M22.921313,16.0273785 C21.5254289,17.3644232 19.3104405,17.317197 17.9726215,15.921313 C16.6355768,14.5262031 16.682803,12.3104405 18.078687,10.9726215 C19.4737969,9.63557676 21.6895595,9.68280301 23.0273785,11.078687 C24.3644232,12.4745711 24.317197,14.6895595 22.921313,16.0273785" id="Fill-10" fill="#EFD6FE"></path>
                        </g>
                        <g id="videp" transform="translate(90.000000, 52.000000)">
                            <g id="Group-3">
                                <mask id="mask-10" fill="white">
                                    <use xlink:href="#path-9"></use>
                                </mask>
                                <g id="Clip-2"></g>
                                <path d="M23.9177682,30.9642795 L2.83142727,27.8614614 C1.02074545,27.5951432 -0.230527273,25.9112795 0.0357909091,24.1005977 L3.13860909,3.01425682 C3.40492727,1.20427955 5.08879091,-0.0476977273 6.89947273,0.218620455 L27.9858136,3.32143864 C29.7957909,3.58846136 31.0477682,5.27162045 30.78145,7.08230227 L27.6786318,28.1686432 C27.4116091,29.979325 25.72845,31.2305977 23.9177682,30.9642795" id="Fill-1" fill="#FFA26B" mask="url(#mask-10)"></path>
                            </g>
                            <path d="M24.8786248,11.623512 L22.6700795,11.9605448 L22.7865598,11.2229802 C22.9835294,9.97315017 22.2990439,8.84482287 21.2579193,8.70133969 L8.97251819,7.01495441 C7.93139359,6.8720818 6.92756887,7.76900431 6.73059935,9.01822382 L5.0337822,19.77702 C4.83681268,21.0262395 5.52129812,22.1551773 6.56242272,22.29805 L18.8478239,23.9850458 C19.8889485,24.1279184 20.8927732,23.2309959 21.0897427,21.9811658 L21.206223,21.2442118 L23.21649,22.1600619 C23.8793808,22.4622924 24.573682,21.9750602 24.7196095,21.0506621 L25.975372,13.0900933 C26.1206452,12.1656953 25.6062996,11.5123889 24.8786248,11.623512" id="Fill-4" fill="#FFFFFF"></path>
                        </g>
                    </g>
                </g>
            </g>
        </g>
    </g>
</svg>