<?xml version="1.0" encoding="UTF-8"?>
<svg width="34px" height="34px" viewBox="0 0 34 34" version="1.1" xmlns="http://www.w3.org/2000/svg" xmlns:xlink="http://www.w3.org/1999/xlink">
    <!-- Generator: Sketch 58 (84663) - https://sketch.com -->
    <title>img_icon</title>
    <desc>Created with Sketch.</desc>
    <defs>
        <polygon id="path-1" points="1.05882353e-05 3.17647059e-05 14.8235029 3.17647059e-05 14.8235029 14.8235294 1.05882353e-05 14.8235294"></polygon>
    </defs>
    <g id="Page-1" stroke="none" stroke-width="1" fill="none" fill-rule="evenodd">
        <g id="sidebar" transform="translate(-1055.000000, -386.000000)">
            <g id="result-1" transform="translate(1043.000000, 302.000000)">
                <g id="List-item">
                    <g id="img_icon" transform="translate(13.000000, 85.000000)">
                        <g>
                            <circle id="Oval" stroke="#FFFFFF" stroke-width="2" fill="#ECD0FD" cx="16" cy="16" r="16"></circle>
                            <g id="Group-6" transform="translate(9.000000, 9.000000)">
                                <g id="Group-3">
                                    <mask id="mask-2" fill="white">
                                        <use xlink:href="#path-1"></use>
                                    </mask>
                                    <g id="Clip-2"></g>
                                    <path d="M13.9544841,7.55235529 L11.3687047,4.82768471 C11.1523341,4.59969353 10.84869,4.48070824 10.5346165,4.50117 C10.2210194,4.52165824 9.93511059,4.67918471 9.75021353,4.93343471 L6.38439882,9.56136706 C6.34175471,9.61994647 6.28341353,9.63397588 6.25241647,9.63702 C6.22155176,9.64006412 6.16159588,9.63805235 6.10823118,9.58894941 L4.20099882,7.83813176 C3.80031353,7.47013765 3.17309294,7.47069353 2.77296353,7.83905824 L0.869013529,9.59167588 L0.869013529,4.01260235 C0.869013529,2.27922882 2.27918118,0.869034706 4.01258118,0.869034706 L10.8110224,0.869034706 C12.5443165,0.869034706 13.9544841,2.27922882 13.9544841,4.01260235 L13.9544841,7.55235529 Z M13.9544841,10.8109376 C13.9544841,12.5443376 12.5443165,13.9545053 10.8109165,13.9545053 L4.01258118,13.9545053 C2.27918118,13.9545053 0.869013529,12.5443376 0.869013529,10.8109376 L0.869013529,10.77282 L3.36151059,8.47837588 C3.43208118,8.41344353 3.54267529,8.41344353 3.61324588,8.47827 L5.52047824,10.2291935 C5.74169294,10.4323024 6.03991059,10.5314876 6.33894882,10.5017347 C6.63785471,10.4718759 6.91052824,10.3153553 7.08727235,10.0724347 L10.4529812,5.44450235 C10.4976371,5.38319647 10.5588371,5.37043765 10.59129,5.36826706 C10.6237429,5.36636118 10.6860547,5.37075529 10.7383076,5.42584059 L13.9544841,8.81471118 L13.9544841,10.8109376 L13.9544841,10.8109376 Z M10.8110224,3.17647059e-05 L4.01258118,3.17647059e-05 C1.80001059,3.17647059e-05 1.05882353e-05,1.80003176 1.05882353e-05,4.01260235 L1.05882353e-05,10.8109376 C1.05882353e-05,13.0235082 1.80001059,14.8235347 4.01258118,14.8235347 L10.8110224,14.8235347 C13.0234871,14.8235347 14.8235135,13.0235082 14.8235135,10.8109376 L14.8235135,4.01260235 C14.8235135,1.80003176 13.0234871,3.17647059e-05 10.8110224,3.17647059e-05 L10.8110224,3.17647059e-05 Z" id="Fill-1" fill="#9523E0" mask="url(#mask-2)"></path>
                                </g>
                                <path d="M4.5,5.14632624 C4.14363592,5.14632624 3.85359935,4.85640372 3.85359935,4.499948 C3.85359935,4.14359628 4.14363592,3.85354376 4.5,3.85354376 C4.85646808,3.85354376 5.14640065,4.14346628 5.14640065,4.499948 C5.14640065,4.85640372 4.85646808,5.14632624 4.5,5.14632624 M4.5,3 C3.67297325,3 3,3.67292392 3,4.500052 C3,5.32705008 3.67297325,6 4.5,6 C5.32715675,6 6,5.32705008 6,4.500052 C6.000104,3.67292392 5.32715675,3 4.5,3" id="Fill-4" fill="#9523E0"></path>
                            </g>
                        </g>
                    </g>
                </g>
            </g>
        </g>
    </g>
</svg>