<svg xmlns="http://www.w3.org/2000/svg" xmlns:xlink="http://www.w3.org/1999/xlink" viewBox="0 0 662.66 223.58"><defs><style>.cls-1{fill:#fff;}.cls-1,.cls-9{fill-rule:evenodd;}.cls-2{isolation:isolate;}.cls-3,.cls-5{fill:#393d50;}.cls-4,.cls-9{fill:#f9525a;}.cls-5{opacity:0.3;mix-blend-mode:multiply;}.cls-6{mask:url(#mask);}.cls-7{mask:url(#mask-2-2);}.cls-8{mask:url(#mask-3);}.cls-10{mask:url(#mask-4-2);}.cls-11{mask:url(#mask-5);}</style><mask id="mask" x="22.7" y="44.72" width="124.27" height="124.51" maskUnits="userSpaceOnUse"><g transform="translate(-168.34 -388.43)"><g id="mask-2"><polygon id="path-1" class="cls-1" points="191.05 433.14 315.31 433.14 315.31 557.66 191.05 557.66 191.05 433.14"/></g></g></mask><mask id="mask-2-2" x="62.98" y="105.39" width="30.94" height="31.03" maskUnits="userSpaceOnUse"><g transform="translate(-168.34 -388.43)"><g id="mask-4"><polygon id="path-3" class="cls-1" points="231.32 505.65 250.26 493.81 262.26 513.01 243.31 524.85 231.32 505.65"/></g></g></mask><mask id="mask-3" x="29.59" y="36.84" width="133.96" height="133.96" maskUnits="userSpaceOnUse"><g transform="translate(-168.34 -388.43)"><g id="mask-10"><polygon id="path-9" class="cls-1" points="197.94 458.46 298.71 425.27 331.89 526.04 231.12 559.23 197.94 458.46"/></g></g></mask><mask id="mask-4-2" x="38.2" y="31.25" width="154.47" height="154.47" maskUnits="userSpaceOnUse"><g transform="translate(-168.34 -388.43)"><g id="mask-6"><polygon id="path-5" class="cls-1" points="206.54 463.05 317.63 419.68 361 530.77 249.91 574.14 206.54 463.05"/></g></g></mask><mask id="mask-5" x="67.12" y="47.33" width="150.37" height="150.77" maskUnits="userSpaceOnUse"><g transform="translate(-168.34 -388.43)"><g id="mask-8"><polygon id="path-7" class="cls-1" points="235.46 474.03 347.34 435.75 385.82 548.25 273.94 586.52 235.46 474.03"/></g></g></mask></defs><title>logo_01</title><g class="cls-2"><g id="Layer_1" data-name="Layer 1"><path class="cls-3" d="M535.59,465.22a7.78,7.78,0,0,0-7.77,7.77v46.09a11.67,11.67,0,0,1-23.33,0V473A7.77,7.77,0,1,0,489,473v46.09a11.66,11.66,0,1,1-23.32,0V473a7.78,7.78,0,0,0-15.55,0v46.09a27.19,27.19,0,0,0,46.64,19,27.19,27.19,0,0,0,46.64-19V473A7.78,7.78,0,0,0,535.59,465.22Z" transform="translate(-168.34 -388.43)"/><path class="cls-3" d="M592.83,473a36.42,36.42,0,1,0,20.5,66.51v.13a7.78,7.78,0,0,0,15.55,0V515.2c0-.15,0-.29,0-.43a37.89,37.89,0,0,0,.39-5.36A36.46,36.46,0,0,0,592.83,473Zm0,57.3a20.88,20.88,0,1,1,20.88-20.88A20.9,20.9,0,0,1,592.83,530.29Z" transform="translate(-168.34 -388.43)"/><path class="cls-3" d="M794.58,473A36.42,36.42,0,1,0,831,509.41,36.46,36.46,0,0,0,794.58,473Zm0,57.3a20.88,20.88,0,1,1,20.87-20.88A20.9,20.9,0,0,1,794.58,530.29Z" transform="translate(-168.34 -388.43)"/><path class="cls-3" d="M652.2,438.57a7.77,7.77,0,0,0-7.77,7.77v93.29a7.77,7.77,0,1,0,15.54,0V446.34A7.77,7.77,0,0,0,652.2,438.57Z" transform="translate(-168.34 -388.43)"/><path class="cls-3" d="M745.49,446.34a7.78,7.78,0,0,0-15.55,0v33a36.4,36.4,0,1,0,15.88,30.05,37.22,37.22,0,0,0-.33-4.87Zm-36.09,42.2a20.9,20.9,0,0,1,20.54,17.25v3.85a7.5,7.5,0,0,0,.23,1.85,20.87,20.87,0,1,1-20.77-22.95Z" transform="translate(-168.34 -388.43)"/><circle class="cls-4" cx="111.79" cy="111.79" r="111.79"/><path class="cls-5" d="M332.39,565.72l-43.29-45-57.75-37.27-38.59-5.79-24.29,17.66c-.07,1.62-.13,3.25-.13,4.89A111.77,111.77,0,0,0,279.24,612Z" transform="translate(-168.34 -388.43)"/><g id="Group-8"><g id="Group-3"><g class="cls-6"><path id="Fill-1" class="cls-1" d="M309.93,516.83l-62.38,39.08a11.41,11.41,0,0,1-15.76-3.64l-39-62.51A11.47,11.47,0,0,1,196.42,474l62.39-39.08a11.42,11.42,0,0,1,15.76,3.64l39,62.51a11.47,11.47,0,0,1-3.64,15.79" transform="translate(-168.34 -388.43)"/></g></g></g><g id="Group-6"><g class="cls-7"><path class="cls-1" d="M237,512.42l1.05-.66a1.21,1.21,0,0,0,.53-1.34,6.67,6.67,0,0,1-.08-3.45,4.43,4.43,0,0,1,1.81-2.41l7.61,12.19c.22.35.11.54-.64,1.12h0l-1.11.84a1.22,1.22,0,0,0-.31,1.62l.67,1.07a1.22,1.22,0,0,0,1.68.39l4.6-2.87h0l4.6-2.87a1.22,1.22,0,0,0,.38-1.68l-.66-1.07a1.24,1.24,0,0,0-1.6-.44c-.44.24-.85.44-1.24.63h0c-.86.42-1.07.43-1.29.08l-7.62-12.19a4.51,4.51,0,0,1,3-.56,6.65,6.65,0,0,1,3.07,1.58,1.2,1.2,0,0,0,1.43.11l1.05-.65a1.23,1.23,0,0,0,.39-1.68l-3.34-5.34a1.22,1.22,0,0,0-1.68-.39l-8.44,5.27h0L232.35,505a1.23,1.23,0,0,0-.39,1.68L235.3,512a1.23,1.23,0,0,0,1.68.4" transform="translate(-168.34 -388.43)"/></g><path id="Fill-4" class="cls-1" d="M261.8,465.94l-13.57,8.48h0l-13.57,8.48a1.45,1.45,0,0,0-.46,2l5.17,8.27a1.45,1.45,0,0,0,2,.47l1.33-.83a1.48,1.48,0,0,0,.65-1.59c-1.06-4.33-.32-8.18,3.88-10.72l15.38,24.64c.82,1.3-.26,2.13-1.24,2.89-.54.43-1.09.84-1.64,1.25a1.47,1.47,0,0,0-.37,1.95l.83,1.31a1.45,1.45,0,0,0,2,.47l7.3-4.56h0l7.3-4.56a1.46,1.46,0,0,0,.46-2l-.82-1.32a1.46,1.46,0,0,0-1.91-.52c-.61.32-1.22.62-1.84.93-1.11.54-2.34,1.14-3.15-.16l-15.39-24.63c4.11-2.66,7.9-1.64,11.33,1.22a1.46,1.46,0,0,0,1.71.11l1.32-.83a1.45,1.45,0,0,0,.47-2l-5.17-8.28a1.47,1.47,0,0,0-2-.46" transform="translate(-168.34 -388.43)"/></g><g class="cls-8"><path class="cls-1" d="M309.3,533.35,237,545.92a11.41,11.41,0,0,1-13.19-9.29l-12.56-72.3a11.41,11.41,0,0,1,9.29-13.19l72.29-12.56A11.4,11.4,0,0,1,306,447.87l12.56,72.29a11.4,11.4,0,0,1-9.28,13.19" transform="translate(-168.34 -388.43)"/></g><path class="cls-9" d="M291.61,469.07l-6.86,3.48-.41-2.53c-.7-4.3-4.16-7.25-7.72-6.6l-42,7.71c-3.56.66-5.87,4.67-5.17,9l6,37c.7,4.29,4.15,7.25,7.71,6.59l42-7.71c3.56-.65,5.88-4.67,5.17-9l-.41-2.53,7.56.83c2.49.27,4.24-2.07,3.72-5.25l-4.46-27.38c-.53-3.18-2.91-4.76-5.17-3.62" transform="translate(-168.34 -388.43)"/><g class="cls-10"><path class="cls-1" d="M314.71,547.51l-71.56-7.38a11.19,11.19,0,0,1-10-12.28l7.39-71.56a11.18,11.18,0,0,1,12.27-10l71.57,7.39a11.17,11.17,0,0,1,10,12.27L327,537.54a11.18,11.18,0,0,1-12.28,10" transform="translate(-168.34 -388.43)"/></g><path class="cls-9" d="M311.44,475a4.33,4.33,0,0,0-3.53-4.88l-37.77-4.23a4.14,4.14,0,0,0-4.36,4l-2.88,30.52a12.77,12.77,0,0,0-2.18-.46c-5.63-.63-10.55,2.58-11,7.17s3.78,8.82,9.41,9.45,10.54-2.57,11-7.16a8.53,8.53,0,0,0,0-.88l2.4-25.38,29.88,3.35-1.71,18.19a12.18,12.18,0,0,0-2.37-.52c-5.63-.63-10.55,2.58-11,7.16s3.78,8.83,9.41,9.46c4.94.55,9.33-1.86,10.62-5.56a4.92,4.92,0,0,0,.44-1.6Z" transform="translate(-168.34 -388.43)"/><g class="cls-11"><path class="cls-1" d="M320.55,567.09l-61-31.74a10.77,10.77,0,0,1-4.6-14.44l31.41-61.15a10.62,10.62,0,0,1,14.36-4.57l61,31.74a10.77,10.77,0,0,1,4.6,14.44l-31.4,61.15a10.64,10.64,0,0,1-14.37,4.57" transform="translate(-168.34 -388.43)"/></g><polygon class="cls-9" points="156.97 170.54 94.39 138.19 126.75 75.61 189.33 107.96 156.97 170.54"/><path id="Fill-6" class="cls-1" d="M262.93,527.18c.18-.35,29.69-12.76,29.69-12.76l6.8,31.73Z" transform="translate(-168.34 -388.43)"/><path id="Fill-8" class="cls-1" d="M276,539.18c.26-.52,44.4-25,44.4-25l5.95,50.42Z" transform="translate(-168.34 -388.43)"/><path id="Fill-10" class="cls-1" d="M313.58,495a10.25,10.25,0,1,1-4.39-13.82A10.25,10.25,0,0,1,313.58,495" transform="translate(-168.34 -388.43)"/></g></g></svg>