<?xml version="1.0" encoding="UTF-8"?>
<svg width="90px" height="90px" viewBox="0 0 90 90" version="1.1" xmlns="http://www.w3.org/2000/svg" xmlns:xlink="http://www.w3.org/1999/xlink">
    <!-- Generator: Sketch 58 (84663) - https://sketch.com -->
    <title>mp3</title>
    <desc>Created with Sketch.</desc>
    <defs>
        <polygon id="path-1" points="7.67543859e-06 9.98214286e-05 34.9933991 9.98214286e-05 34.9933991 43 7.67543859e-06 43"></polygon>
    </defs>
    <g id="Page-1" stroke="none" stroke-width="1" fill="none" fill-rule="evenodd">
        <g id="place-holders" transform="translate(-85.000000, -754.000000)">
            <g id="mp3" transform="translate(85.000000, 754.000000)">
                <g>
                    <g id="Group-19" fill="#BAF9E3">
                        <rect id="Rectangle" x="0" y="0" width="90" height="90" rx="5"></rect>
                    </g>
                    <g id="Group-6" transform="translate(26.000000, 27.000000)">
                        <g id="Group-3">
                            <mask id="mask-2" fill="white">
                                <use xlink:href="#path-1"></use>
                            </mask>
                            <g id="Clip-2"></g>
                            <path d="M22.1669814,29.6903712 L21.4539331,29.6903712 L21.4539331,28.4353855 L22.1325954,28.4353855 C22.7190757,28.4239445 23.4665866,28.206257 23.4665866,27.5723141 C23.4665866,27.1238087 23.0986261,26.7907123 22.3622445,26.7907123 C21.7525077,26.7907123 21.1089221,27.054932 20.7977599,27.2389873 L20.4416195,25.9725605 C20.8897116,25.6858427 21.7875844,25.4089534 22.7534616,25.4089534 C24.352409,25.4089534 25.2383849,26.2496034 25.2383849,27.2726962 C25.2383849,28.0668141 24.7899857,28.6880873 23.8698542,29.0115087 L23.8698542,29.0339302 C24.7668059,29.1956409 25.4910603,29.874657 25.4910603,30.8527534 C25.4910603,32.1755409 24.3292292,33.142657 22.4318607,33.142657 C21.4651393,33.142657 20.6480888,32.8895712 20.2111261,32.6127587 L20.5679572,31.3013355 C20.8785055,31.4630462 21.5916305,31.762357 22.3045252,31.762357 C23.2136042,31.762357 23.6737467,31.3238337 23.6737467,30.7601498 C23.673977,30.0236212 22.9375954,29.6903712 22.1669814,29.6903712 L22.1669814,29.6903712 Z M13.8464989,33.0161909 L13.8464989,25.3626516 C14.386773,25.2712766 15.1461042,25.2024766 16.2160603,25.2024766 C17.2971458,25.2024766 18.0679134,25.4089534 18.5856217,25.823673 C19.0801502,26.2144355 19.4138783,26.8595123 19.4138783,27.6186927 C19.4138783,28.3776427 19.1609726,29.022873 18.70083,29.4600141 C18.1022993,30.023698 17.2172445,30.276707 16.1815976,30.276707 C15.9512577,30.276707 15.7446349,30.2652659 15.5830669,30.2428445 L15.5830669,33.0161909 L13.8464989,33.0161909 L13.8464989,33.0161909 Z M30.4200735,40.1972677 L6.86491996,40.1972677 C5.88829715,40.1972677 5.09319846,39.4016909 5.09319846,38.4234409 L5.09319846,36.372648 L27.0515537,36.372648 C28.0694704,36.372648 28.8949638,35.5476623 28.8949638,34.5284855 L28.8949638,23.3442623 C28.8949638,22.3250855 28.0694704,21.500023 27.0515537,21.500023 L5.09319846,21.500023 L5.09319846,4.57668196 C5.09319846,3.60111946 5.88829715,2.80561946 6.86491996,2.80561946 L23.0802818,2.78864982 L23.0802818,8.78484625 C23.0802818,10.5363284 24.500852,11.958707 26.2526941,11.958707 L32.1244046,11.9418909 L32.1904901,38.4233641 C32.1904901,39.4016909 31.3966195,40.1972677 30.4200735,40.1972677 L30.4200735,40.1972677 Z M4.43073136,25.2599891 L6.76583004,25.2599891 L7.52516118,27.848973 C7.76686075,28.745907 8.00863706,29.7129462 8.18141118,30.6223962 L8.21579715,30.6223962 C8.43439364,29.724157 8.69858224,28.700757 8.95202522,27.8378391 L9.7802818,25.2599891 L12.0690208,25.2599891 L12.4947007,33.0161141 L10.7806217,33.0161141 L10.6655669,30.0475016 C10.6310274,29.1140177 10.5966414,27.9868034 10.5966414,26.8595123 L10.5623322,26.8595123 C10.3206327,27.8490498 9.99887829,28.9538427 9.69961294,29.8632927 L8.75607127,32.889648 L7.38754057,32.889648 L6.55928399,29.8858677 C6.3056875,28.9764177 6.04165241,27.8717016 5.85759539,26.8595123 L5.83426206,26.8595123 C5.78866996,27.9068695 5.75351645,29.102807 5.69602741,30.069923 L5.55817654,33.0161141 L3.9361261,33.0161141 L4.43073136,25.2599891 Z M24.1284397,9.98214286e-05 L6.86491996,9.98214286e-05 C4.34284759,9.98214286e-05 2.29012829,2.05503911 2.29012829,4.57668196 L2.29012829,21.500023 L1.84334101,21.500023 C0.825424342,21.500023 7.67543859e-06,22.3250855 7.67543859e-06,23.3442623 L7.67543859e-06,34.5284855 C7.67543859e-06,35.5476623 0.825424342,36.3725712 1.84334101,36.3725712 L2.29012829,36.3725712 L2.29012829,38.4234409 C2.29012829,40.947848 4.34284759,43.000023 6.86491996,43.000023 L30.4200735,43.000023 C32.9407643,43.000023 34.9934068,40.9477712 34.9934068,38.4234409 L34.9934068,10.8315695 L24.1284397,9.98214286e-05 Z" id="Fill-1" fill="#FFFFFF" mask="url(#mask-2)"></path>
                        </g>
                        <path d="M18,27.9479599 C18,27.3541281 17.5270662,27 16.6923951,27 C16.3516218,27 16.1208723,27.0293085 16,27.0573399 L16,28.9625822 C16.143009,28.9906136 16.3187832,29 16.5608943,29 C17.4505406,29 18,28.6084541 18,27.9479599" id="Fill-4" fill="#FFFFFF"></path>
                    </g>
                </g>
            </g>
        </g>
    </g>
</svg>