<?xml version="1.0" encoding="UTF-8"?>
<svg width="34px" height="34px" viewBox="0 0 34 34" version="1.1" xmlns="http://www.w3.org/2000/svg" xmlns:xlink="http://www.w3.org/1999/xlink">
    <!-- Generator: Sketch 58 (84663) - https://sketch.com -->
    <title>music_icon</title>
    <desc>Created with Sketch.</desc>
    <defs>
        <polygon id="path-1" points="0 2e-05 14.3969696 2e-05 14.3969696 14.4808 0 14.4808"></polygon>
    </defs>
    <g id="Page-1" stroke="none" stroke-width="1" fill="none" fill-rule="evenodd">
        <g id="sidebar" transform="translate(-1053.000000, -785.000000)">
            <g id="result-3" transform="translate(1041.000000, 701.000000)">
                <g id="List-item">
                    <g id="music_icon" transform="translate(13.000000, 85.000000)">
                        <circle id="Oval" stroke="#FFFFFF" stroke-width="2" fill="#AEFCE1" cx="16" cy="16" r="16"></circle>
                        <g id="music-note" transform="translate(8.000000, 9.000000)">
                            <g>
                                <mask id="mask-2" fill="white">
                                    <use xlink:href="#path-1"></use>
                                </mask>
                                <g id="Clip-2"></g>
                                <path d="M2.36098,10.88222 C1.63718,10.99682 1.18498,11.39242 1.21958,12.14402 C1.25138,12.83702 1.68638,13.26242 2.38178,13.2632217 C3.12558,13.26422 3.57738,12.82082 3.57459294,12.07562 C3.57178,11.32362 3.09278,10.95442 2.36098,10.88222 L2.36098,10.88222 Z M12.01918,9.08182 C11.28958,9.16182 10.82178,9.53422 10.8185641,10.28802 C10.81558,10.98702 11.23678,11.42622 11.92578,11.46222 C12.66818,11.50122 13.14078,11.07422 13.17418,10.33162 C13.20818,9.58062 12.74538,9.18942 12.01918,9.08182 L12.01918,9.08182 Z M4.83978,4.16682 C7.67478,3.63482 10.40298,3.12302 13.12938,2.61142 L13.12938,1.41802 C10.32258,1.94442 7.59418,2.45602 4.83978,2.97262 L4.83978,4.16682 Z M13.15718,8.09502 L13.15718,3.82162 C10.38738,4.33642 7.66358,4.84282 4.79798,5.37542 C4.79798,6.82142 4.79798,8.27622 4.79778,9.73102 C4.79778,10.46442 4.81198,11.19802 4.79378,11.93082 C4.75518,13.48882 3.62178,14.59282 2.20538,14.47182 C0.85298,14.35602 -0.17542,13.07022 0.02498,11.74562 C0.24758,10.27422 1.59138,9.45622 3.16518,9.83182 C3.26018,9.85442 3.35958,9.85862 3.57658,9.88722 L3.57658,2.00722 C7.20638,1.32582 10.73018,0.66442 14.27078,2e-05 C14.32038,0.12242 14.38458,0.20662 14.38478,0.29122 C14.39198,3.59082 14.40578,6.89042 14.38898,10.19002 C14.38298,11.36722 13.76278,12.20202 12.72698,12.54642 C11.72838,12.87842 10.87638,12.59942 10.20278,11.83362 C9.52098,11.05862 9.41238,10.16362 9.86018,9.22922 C10.28598,8.34062 11.27678,7.79482 12.24158,7.90462 C12.53398,7.93782 12.82038,8.02342 13.15718,8.09502 L13.15718,8.09502 Z" id="Fill-1" fill="#23AC7D" mask="url(#mask-2)"></path>
                            </g>
                        </g>
                    </g>
                </g>
            </g>
        </g>
    </g>
</svg>