<?xml version="1.0" encoding="UTF-8"?>
<svg width="90px" height="90px" viewBox="0 0 90 90" version="1.1" xmlns="http://www.w3.org/2000/svg" xmlns:xlink="http://www.w3.org/1999/xlink">
    <!-- Generator: Sketch 58 (84663) - https://sketch.com -->
    <title>general _text</title>
    <desc>Created with Sketch.</desc>
    <defs>
        <polygon id="path-1" points="0 0.0253258868 16.6054615 0.0253258868 16.6054615 16.845283 0 16.845283"></polygon>
    </defs>
    <g id="Page-1" stroke="none" stroke-width="1" fill="none" fill-rule="evenodd">
        <g id="place-holders" transform="translate(-519.000000, -178.000000)">
            <g id="general-_text" transform="translate(519.000000, 178.000000)">
                <g transform="translate(0.000000, 0.000000)">
                    <g id="Group-19" fill="#BBE9F9">
                        <rect id="Rectangle" x="0" y="0" width="90" height="90" rx="5"></rect>
                    </g>
                    <g id="Group-6" transform="translate(45.000000, 48.500000) rotate(-1.000000) translate(-45.000000, -48.500000) translate(27.000000, 33.000000)">
                        <g id="Group-3" transform="translate(0.087311, 13.569656)">
                            <mask id="mask-2" fill="white">
                                <use xlink:href="#path-1"></use>
                            </mask>
                            <g id="Clip-2"></g>
                            <path d="M0.903846154,6.5171357 L1.82576923,6.5171357 C2.21984615,6.5171357 2.56692308,6.26355079 2.68623077,5.88317343 C2.99715385,4.91589192 3.43823077,4.17325042 3.99861538,3.67698475 C4.559,3.18064664 5.24592308,2.9126074 6.08469231,2.86551306 L6.08107692,13.5486829 C6.08107692,13.8566074 5.94007692,13.9326829 5.23507692,14.0051357 L5.22784615,14.0051357 C4.90607692,14.0377395 4.56623077,14.0703795 4.19384615,14.0993244 C3.72746154,14.1355508 3.36230769,14.5340414 3.36230769,15.0013621 L3.36230769,15.9396263 C3.36230769,16.4395146 3.76723077,16.8452866 4.26615385,16.8452866 L8.30092308,16.8452866 L8.30453846,16.8452866 L12.3393077,16.8452866 C12.8382669,16.8452866 13.2431538,16.4395146 13.2431538,15.9396263 L13.2431538,15.0013621 C13.2431538,14.5340414 12.878,14.1355508 12.4116154,14.0993244 C12.0392308,14.0703795 11.6994208,14.0377757 11.3776154,14.0051357 L11.3703846,14.0051357 C10.6653846,13.9326829 10.5243846,13.853021 10.5243846,13.5486829 L10.5207692,2.86551306 C11.3595385,2.91264362 12.0464615,3.18064664 12.6068462,3.67698475 C13.1672308,4.17325042 13.6083077,4.91230551 13.9192308,5.88317343 C14.0385385,6.2598557 14.3856154,6.5171357 14.7796923,6.5171357 L15.7016154,6.5171357 C16.2005746,6.5171357 16.6054615,6.11136362 16.6054615,5.61147532 L16.6054615,0.930986264 C16.6054615,0.431061736 16.2005746,0.0253258868 15.7016154,0.0253258868 L8.30453846,0.0253258868 L8.30092308,0.0253258868 L0.903846154,0.0253258868 C0.404923077,0.0253258868 0,0.431061736 0,0.930986264 L0,5.60778023 C0,6.10774098 0.404923077,6.5171357 0.903846154,6.5171357" id="Fill-1" fill="#FFFFFF" mask="url(#mask-2)"></path>
                        </g>
                        <path d="M34.6747833,0.784384769 L22.7624738,0.784384769 L22.7552345,0.784384769 L10.8465447,0.784384769 C10.2456807,0.784384769 9.76064589,1.27242712 9.76064589,1.87701691 L9.76064589,9.16851538 C9.76064589,9.77310516 10.2456807,10.2611475 10.8465447,10.2611475 L12.0156957,10.2611475 C12.4862518,10.2611475 12.8988933,9.95885263 13.0472995,9.51087345 C14.0861427,6.34588236 16.0733374,4.20068126 19.7219573,4.25531286 L19.7183376,25.9585928 C19.7183376,27.1058566 18.7084879,27.207872 17.7926771,27.3025304 C17.2823047,27.357162 16.7755519,27.4009037 16.2652157,27.4445725 C15.7005122,27.4919928 15.2661526,27.9654667 15.2661526,28.533599 L15.2661526,29.6917526 C15.2661526,30.2964153 15.7511874,30.7843848 16.3520514,30.7843848 L22.7588542,30.7843848 L22.7660935,30.7843848 L29.1728962,30.7843848 C29.7737602,30.7843848 30.258795,30.2964153 30.258795,29.6917526 L30.258795,28.533599 C30.258795,27.9654303 29.8244355,27.4919563 29.2597681,27.444609 C28.7493595,27.4045458 28.2426067,27.3571984 27.7322705,27.3025668 C26.8164959,27.207872 25.80661,27.105893 25.80661,25.9586292 L25.8029904,4.25534928 C29.4516102,4.20071768 31.4387688,6.34591878 32.4776119,9.51090987 C32.6260543,9.95888905 33.0386596,10.2611839 33.5092158,10.2611839 L34.6747471,10.2611839 C35.2756111,10.2611839 35.7606459,9.77314158 35.7606459,9.1685518 L35.7606459,1.87705333 C35.7606459,1.27242712 35.2756473,0.784384769 34.6747833,0.784384769" id="Fill-4" fill="#FFFFFF"></path>
                    </g>
                </g>
            </g>
        </g>
    </g>
</svg>