<?xml version="1.0" encoding="UTF-8"?>
<svg width="90px" height="90px" viewBox="0 0 90 90" version="1.1" xmlns="http://www.w3.org/2000/svg" xmlns:xlink="http://www.w3.org/1999/xlink">
    <!-- Generator: Sketch 58 (84663) - https://sketch.com -->
    <title>text</title>
    <desc>Created with Sketch.</desc>
    <defs>
        <polygon id="path-1" points="6.96428571e-06 0.0232746429 38.9999304 0.0232746429 38.9999304 38.8607143 6.96428571e-06 38.8607143"></polygon>
    </defs>
    <g id="Page-1" stroke="none" stroke-width="1" fill="none" fill-rule="evenodd">
        <g id="place-holders" transform="translate(-328.000000, -181.000000)">
            <g id="text" transform="translate(328.000000, 181.000000)">
                <g transform="translate(0.000000, 0.000000)">
                    <g id="Group-19" fill="#BBE9F9">
                        <rect id="Rectangle" x="0" y="0" width="90" height="90" rx="5"></rect>
                    </g>
                    <g id="Group-10" transform="translate(23.000000, 26.000000)">
                        <g id="Group-3">
                            <mask id="mask-2" fill="white">
                                <use xlink:href="#path-1"></use>
                            </mask>
                            <g id="Clip-2"></g>
                            <path d="M15.9465498,8.67507643 L15.9465498,7.34461929 L21.3305695,7.34461929 L21.3305695,8.67514607 L19.4180373,8.67514607 L19.4180373,14.3499246 L17.8273945,14.3499246 L17.8273945,8.67514607 L15.9465498,8.67514607 L15.9465498,8.67507643 Z M34.8676784,36.32928 L13.5839159,36.32928 C12.7016105,36.32928 11.9831052,35.6107746 11.9831052,34.7271461 L11.9831052,17.0578479 L23.9008784,17.0578479 C24.820582,17.0578479 25.566457,16.3126693 25.566457,15.3922693 L25.566457,6.26557286 C25.566457,5.34510321 24.820582,4.599855 23.9008784,4.599855 L11.9831052,4.599855 L11.9831052,4.15678714 C11.9831052,3.27573536 12.7016105,2.55723 13.5839159,2.55723 L28.2355891,2.54197821 L28.2355891,7.95782464 C28.2355891,9.53962286 29.519107,10.8243943 31.1022284,10.8243943 L36.4076909,10.8092121 L36.4673748,34.7272157 C36.4673748,35.6107746 35.7499838,36.32928 34.8676784,36.32928 L34.8676784,36.32928 Z M15.5587784,14.349855 L13.7292605,14.349855 L13.0950927,13.0815193 C12.8354641,12.5928354 12.6692266,12.2297175 12.471232,11.8234907 L12.4508266,11.8234907 C12.3047855,12.2297175 12.1284498,12.5928354 11.9099802,13.0815193 L11.3279748,14.349855 L9.51962839,14.349855 L11.5463052,10.8053121 L9.59254446,7.34448 L11.4111284,7.34448 L12.0242641,8.62298357 C12.2326355,9.0482925 12.3887052,9.39232821 12.5549427,9.78699429 L12.5752784,9.78699429 C12.7415855,9.34016571 12.876832,9.02795679 13.0539338,8.62298357 L13.6462463,7.34448 L15.4545927,7.34448 L13.4797998,10.7633871 L15.5587784,14.349855 Z M9.00726589,8.67507643 L7.09473375,8.67507643 L7.09473375,14.349855 L5.50409089,14.349855 L5.50409089,8.67507643 L3.62317661,8.67507643 L3.62317661,7.34461929 L9.00726589,7.34461929 L9.00726589,8.67507643 Z M29.1826623,0.0232746429 L13.5839159,0.0232746429 C11.3052016,0.0232746429 9.45033375,1.87925679 9.45033375,4.15678714 L9.45033375,4.599855 L1.66565518,4.599855 C0.745812321,4.599855 6.96428571e-06,5.34510321 6.96428571e-06,6.26557286 L6.96428571e-06,15.3922693 C6.96428571e-06,16.3126693 0.745812321,17.0578479 1.66565518,17.0578479 L9.45033375,17.0578479 L9.45033375,34.7271461 C9.45033375,37.0071836 11.305132,38.8607282 13.5839159,38.8607282 L34.8676784,38.8607282 C37.1451391,38.8607282 38.9999373,37.0071836 38.9999373,34.7271461 L38.9999373,9.80628536 L29.1826623,0.0232746429 Z" id="Fill-1" fill="#FFFFFF" mask="url(#mask-2)"></path>
                        </g>
                        <path d="M31.6971425,20 L15.3029273,20 C14.583344,20 14,20.6708898 14,21.5 C14,22.3291102 14.583344,23 15.3029273,23 L31.6971425,23 C32.4165862,23 33,22.3291102 33,21.5 C33,20.6708898 32.4165862,20 31.6971425,20" id="Fill-4" fill="#FFFFFF"></path>
                        <path d="M31.6971425,25 L15.3029273,25 C14.583344,25 14,25.6708094 14,26.5 C14,27.3290298 14.583344,28 15.3029273,28 L31.6971425,28 C32.4165862,28 33,27.3290298 33,26.5 C33,25.6708094 32.4165862,25 31.6971425,25" id="Fill-6" fill="#FFFFFF"></path>
                        <path d="M31.6971425,30 L15.3029273,30 C14.583344,30 14,30.6708094 14,31.5 C14,32.3290298 14.583344,33 15.3029273,33 L31.6971425,33 C32.4165862,33 33,32.3290298 33,31.5 C33,30.6706487 32.4165862,30 31.6971425,30" id="Fill-8" fill="#FFFFFF"></path>
                    </g>
                </g>
            </g>
        </g>
    </g>
</svg>