<?xml version="1.0" encoding="UTF-8"?>
<svg width="90px" height="90px" viewBox="0 0 90 90" version="1.1" xmlns="http://www.w3.org/2000/svg" xmlns:xlink="http://www.w3.org/1999/xlink">
    <!-- Generator: Sketch 58 (84663) - https://sketch.com -->
    <title>general_video</title>
    <desc>Created with Sketch.</desc>
    <g id="general_video" stroke="none" stroke-width="1" fill="none" fill-rule="evenodd">
        <g>
            <g id="Group-19" fill="#FFA26B">
                <rect id="Rectangle" x="0" y="0" width="90" height="90" rx="5"></rect>
            </g>
            <g id="Group-5" transform="translate(28.000000, 33.000000)" fill="#FFFFFF">
                <path d="M0,22.2361997 L0,2.76381574 C1.07932486,0.696238006 2.77294423,-0.037481423 5.11376675,0.00146334504 C11.501176,0.107003666 17.8917194,0.0283352349 24.2806958,0.0419659037 C27.5425683,0.048975962 28.9737021,1.43813584 28.9854552,4.62187062 C29.0046519,9.87162534 29.0050437,15.1213801 28.9854552,20.3707453 C28.9733103,23.5533118 27.5366917,24.9506501 24.2822628,24.9580496 C17.8932865,24.9720697 11.5027431,24.8930118 5.11533383,24.9985521 C2.77372777,25.0374969 1.08441786,24.2952096 0,22.2361997" id="Fill-1"></path>
                <path d="M39,22 C36.290757,20.6985 33.5582534,19.4369 30.8959396,18.0575 C30.449092,17.82608 30.076515,17.0923 30.061008,16.58006 C29.9798,13.86078 29.979392,11.13656 30.061416,8.4169 C30.076515,7.90542 30.4511324,7.17278 30.8983881,6.94098 C33.5598857,5.56234 36.2915731,4.30074 39,3 L39,22 Z" id="Fill-3"></path>
            </g>
        </g>
    </g>
</svg>