<?xml version="1.0" encoding="UTF-8"?>
<svg width="34px" height="34px" viewBox="0 0 34 34" version="1.1" xmlns="http://www.w3.org/2000/svg" xmlns:xlink="http://www.w3.org/1999/xlink">
    <!-- Generator: Sketch 58 (84663) - https://sketch.com -->
    <title>video_icon</title>
    <desc>Created with Sketch.</desc>
    <g id="Page-1" stroke="none" stroke-width="1" fill="none" fill-rule="evenodd">
        <g id="sidebar" transform="translate(-1060.000000, -988.000000)">
            <g id="result-4" transform="translate(1048.000000, 904.000000)">
                <g id="List-item">
                    <g id="video_icon" transform="translate(13.000000, 85.000000)">
                        <circle id="Oval" stroke="#FFFFFF" stroke-width="2" fill="#FFBE97" cx="16" cy="16" r="16"></circle>
                        <g id="video" transform="translate(9.000000, 11.000000)" fill="#F8640C">
                            <g id="Fill-1">
                                <path d="M16.28107,2.34111299 C15.1895,2.92932376 14.18004,3.47021709 13.17364,4.01693937 C12.6191,4.31833096 12.22368,6.37955456 12.73232,6.70357623 C13.85177,7.41693823 15.05061,8.00343461 16.28107,8.67667964 L16.28107,2.34111299 Z M6.26501,10.3058743 C7.73755,10.3058743 9.21043,10.3173608 10.6828,10.3014169 C11.51869,10.2921591 11.88861,9.93573529 11.89388,9.10716558 C11.90935,6.70820511 11.90901,4.3090732 11.89422,1.91011273 C11.88912,1.07708558 11.52328,0.714489895 10.68943,0.710889654 C7.7724,0.698717411 4.85554,0.699746051 1.93851,0.709861014 C1.04907,0.712946934 0.68952,1.06594198 0.68476,1.94662946 C0.67201,4.31695944 0.67235,6.68746087 0.68459,9.05796229 C0.68918,9.94173569 1.04703,10.2935307 1.93205,10.3021027 C3.3762,10.3161607 4.82069,10.3060458 6.26501,10.3058743 L6.26501,10.3058743 Z M17,9.79206854 C15.5788,9.04767589 14.1576,8.30328324 12.57966,7.47677081 C12.57966,8.07166775 12.58714,8.56318634 12.57813,9.05436205 C12.55586,10.296788 11.9136,10.9810052 10.70371,10.9868342 C7.76356,11.0014066 4.8229,10.9777479 1.88275,10.9999325 C0.96679,11.0067212 0.43401,10.5008017 0,9.79206854 L0,1.22006657 C0.50218,0.298404919 1.26055,-0.0216736345 2.30707,0.00112789073 C4.93527,0.0582174238 7.56551,0.0194719749 10.1949,0.0201577351 C12.0632,0.0205006152 12.57813,0.531734813 12.58,2.38534452 C12.58034,2.72153844 12.58,3.05790379 12.58,3.53296414 C14.12326,2.72548156 15.56163,1.97268834 17,1.22006657 L17,9.79206854 Z"></path>
                            </g>
                        </g>
                    </g>
                </g>
            </g>
        </g>
    </g>
</svg>