<?xml version="1.0" encoding="UTF-8"?>
<svg width="20px" height="15px" viewBox="0 0 20 15" version="1.1" xmlns="http://www.w3.org/2000/svg" xmlns:xlink="http://www.w3.org/1999/xlink">
    <!-- Generator: Sketch 58 (84663) - https://sketch.com -->
    <title>eye</title>
    <desc>Created with Sketch.</desc>
    <defs>
        <polygon id="path-1" points="4.87288826e-05 0.222461538 19.9810529 0.222461538 19.9810529 15 4.87288826e-05 15"></polygon>
    </defs>
    <g id="Page-1" stroke="none" stroke-width="1" fill="none" fill-rule="evenodd">
        <g id="pop-up" transform="translate(-484.000000, -510.000000)">
            <g id="view-email" transform="translate(484.000000, 508.000000)">
                <g id="eye" transform="translate(0.000000, 2.000000)">
                    <g id="Group-3">
                        <mask id="mask-2" fill="white">
                            <use xlink:href="#path-1"></use>
                        </mask>
                        <g id="Clip-2"></g>
                        <path d="M9.97933333,13.1571 C13.6377241,13.0343308 16.0793333,11.0836385 17.7993333,8.05848462 C17.9450805,7.8021 17.9041609,7.29856154 17.7466897,7.03017692 C15.9837011,4.02856154 13.5301379,2.04463846 9.89105747,2.08433077 C6.30393103,2.12356154 3.91289655,4.13586923 2.18508046,7.09617692 C2.04324138,7.33871538 2.00944828,7.79125385 2.14002299,8.02548462 C3.86347126,11.1131769 6.34714943,13.0546385 9.97933333,13.1571 M10.0558851,0.222377374 C14.1915172,0.242561538 18.4588736,3.25779231 19.8968046,7.19402308 C19.9793333,7.41971538 20.0207126,7.73494615 19.9289885,7.93963846 C17.6646207,12.9960231 12.7117471,16.2408692 7.08737931,14.5472538 C3.71128736,13.5304846 1.54508046,11.1217154 0.0731264368,8.01371538 C-0.0367586207,7.78156154 -0.0135402299,7.41763846 0.081862069,7.16586923 C1.61036782,3.13363846 5.83703448,0.201946154 10.0558851,0.222377374" id="Fill-1" fill="#393C50" mask="url(#mask-2)"></path>
                    </g>
                    <path d="M11.2430153,7.46926948 C11.2254968,6.51749198 10.4194234,5.73934218 9.46947884,5.75707716 C8.51559257,5.77481214 7.74017675,6.5779223 7.75769532,7.5296998 C7.77499491,8.48125835 8.58084925,9.26006501 9.5301369,9.24298687 C10.4798625,9.22590874 11.2605339,8.41754377 11.2430153,7.46926948 M12.9999092,7.47255374 C13.013705,9.37523293 11.4541141,10.9716005 9.55378697,10.9996261 C7.65258389,11.0276518 6.0410942,9.47638803 6.00080148,7.5791826 C5.95919487,5.62067104 7.54287383,4.0004379 9.49904143,4 C11.4022154,3.99978105 12.9861133,5.57075035 12.9999092,7.47255374" id="Fill-4" fill="#393C50"></path>
                </g>
            </g>
        </g>
    </g>
</svg>