<?xml version="1.0" encoding="UTF-8"?>
<svg width="90px" height="90px" viewBox="0 0 90 90" version="1.1" xmlns="http://www.w3.org/2000/svg" xmlns:xlink="http://www.w3.org/1999/xlink">
    <!-- Generator: Sketch 58 (84663) - https://sketch.com -->
    <title>word doc</title>
    <desc>Created with Sketch.</desc>
    <g id="Page-1" stroke="none" stroke-width="1" fill="none" fill-rule="evenodd">
        <g id="place-holders" transform="translate(-90.000000, -181.000000)">
            <g id="word-doc" transform="translate(90.000000, 181.000000)">
                <g transform="translate(0.000000, 0.000000)">
                    <g id="Group-19" fill="#BBE9F9">
                        <rect id="Rectangle" x="0" y="0" width="90" height="90" rx="5"></rect>
                    </g>
                    <path d="M62,56 L48,56 L48,53.6666667 L58.5,53.6666667 C59.144,53.6666667 59.6666667,53.144 59.6666667,52.5 C59.6666667,51.856 59.144,51.3333333 58.5,51.3333333 L48,51.3333333 L48,49 L58.5,49 C59.144,49 59.6666667,48.4773333 59.6666667,47.8333333 C59.6666667,47.1893333 59.144,46.6666667 58.5,46.6666667 L48,46.6666667 L48,44.3333333 L58.5,44.3333333 C59.144,44.3333333 59.6666667,43.8106667 59.6666667,43.1666667 C59.6666667,42.5226667 59.144,42 58.5,42 L48,42 L48,39.6666667 L58.5,39.6666667 C59.144,39.6666667 59.6666667,39.144 59.6666667,38.5 C59.6666667,37.856 59.144,37.3333333 58.5,37.3333333 L48,37.3333333 L48,35 L62,35 L62,56 Z M42.9927569,41.3114866 L41.7927793,51.9505157 C41.7303805,52.4918038 41.2983886,52.9243615 40.7487988,52.9905452 C40.6983998,52.9976363 40.6504007,53 40.6000016,53 C40.1056109,53 39.6544193,52.697446 39.4768226,52.2341601 L37.0000689,45.7292483 L34.5233152,52.2341601 C34.3313188,52.7399926 33.8273283,53.0496378 33.2705387,52.9929089 C32.7257489,52.93618 32.288957,52.5201682 32.2121585,51.9836075 L31.0121809,43.7106456 C30.9185827,43.0653545 31.3745741,42.4673376 32.0297619,42.3751531 C32.6873496,42.280605 33.2945382,42.7320724 33.3881365,43.3773634 L33.9233265,47.0741955 L35.87449,41.9473228 C36.2248834,41.0254785 37.7704545,41.0254785 38.1232479,41.9473228 L39.9616136,46.7740052 L40.6072015,41.0491155 C40.6816001,40.4014608 41.2911887,39.9381749 41.9319767,40.0067223 C42.5919644,40.0799971 43.0647555,40.6638319 42.9927569,41.3114866 L42.9927569,41.3114866 Z M62.84375,32.6680291 L47.8125,32.6680291 L47.8125,29.1681863 C47.8125,28.8205352 47.659875,28.49155 47.3939375,28.2698933 C47.1303125,28.0482366 46.7765,27.9525742 46.4435,28.0225711 L27.9435,31.5224139 C27.3954375,31.6250759 27,32.105721 27,32.6680291 L27,58.3335429 C27,58.8935178 27.3954375,59.3764961 27.9435,59.4791581 L46.4435,62.9790009 C46.512875,62.9930003 46.5845625,63 46.65625,63 C46.9245,63 47.1858125,62.9066709 47.3939375,62.7316787 C47.659875,62.510022 47.8125,62.1787036 47.8125,61.8333857 L47.8125,58.3335429 L62.84375,58.3335429 C63.482,58.3335429 64,57.8108997 64,57.1669287 L64,33.8346434 C64,33.1906723 63.482,32.6680291 62.84375,32.6680291 L62.84375,32.6680291 Z" id="Fill-1" fill="#FFFFFF"></path>
                </g>
            </g>
        </g>
    </g>
</svg>